<svg id="Layer_1" data-name="Layer 1" xmlns="http://www.w3.org/2000/svg" viewBox="0 0 327.02 162.45"><defs><style>.cls-1{fill:#0092ff;}</style></defs><path d="M417,150.06h15.83V131.51H449.2v18.55h22.37V164.8H449.2v24.56a5.49,5.49,0,0,0,6,6h15.28V210.1H453.56q-9.72,0-15.23-5.51t-5.51-15.23V164.8H417Z" transform="translate(-352.14 -89.58)"/><path d="M502.68,130.42v42.35h8.08l12.55-22.71h18.23l-16.7,29.37,17,30.67H523.31l-12.66-23.58h-8V210.1H486.31V130.42Z" transform="translate(-352.14 -89.58)"/><path d="M549.4,172.44a30.31,30.31,0,0,1,1.47-9.71,20.65,20.65,0,0,1,4.26-7.43,18.74,18.74,0,0,1,6.66-4.69,21.82,21.82,0,0,1,8.57-1.64A17.13,17.13,0,0,1,580.89,152a12.63,12.63,0,0,1,5,8.4H587c-.08-1.23-.15-2.47-.22-3.71a31,31,0,0,1-.27-3.44c0-1.2-.06-2.27-.06-3.22V130.42h16.38V210.1H587V199.62h-1.09a12.71,12.71,0,0,1-5,8.52,17.19,17.19,0,0,1-10.53,3.05,21.14,21.14,0,0,1-8.57-1.69,19,19,0,0,1-6.66-4.8,21.14,21.14,0,0,1-4.26-7.54,31.49,31.49,0,0,1-1.47-10ZM576,196.89c3.28,0,5.82-.91,7.64-2.73a9.44,9.44,0,0,0,2.73-7V173a9.32,9.32,0,0,0-2.84-7.15,11.94,11.94,0,0,0-15-.06,9.42,9.42,0,0,0-2.79,7.21v13.64a10.34,10.34,0,0,0,2.68,7.42C570.23,196,572.76,196.89,576,196.89Z" transform="translate(-352.14 -89.58)"/><path class="cls-1" d="M373.72,158.81a12.55,12.55,0,0,0,9-3.28q3.45-3.28,3.11-8.81l-1.73-26.07a30.07,30.07,0,0,1,1.64-12.86A26.68,26.68,0,0,1,392,98a27.75,27.75,0,0,1,10.1-6.21,37.94,37.94,0,0,1,13-2.16h14.68v24.17h-9.5c-3.34,0-5.95.8-7.85,2.41s-2.74,4.26-2.51,8l1.73,26.06a17.1,17.1,0,0,1-1.38,8.55,16.05,16.05,0,0,1-4.92,6.13,24.72,24.72,0,0,1-7.6,3.8,35.15,35.15,0,0,1-9.4,1.55v.86a35.55,35.55,0,0,1,9.4,1.56,22.61,22.61,0,0,1,7.6,4,17.27,17.27,0,0,1,4.92,6.38,17.61,17.61,0,0,1,1.38,8.64L410,217.5a8.88,8.88,0,0,0,2.68,7.51,10.75,10.75,0,0,0,7.68,2.85h9.5V252H415.15a36.57,36.57,0,0,1-13-2.25,27.38,27.38,0,0,1-10.1-6.47,28.15,28.15,0,0,1-6.3-10.1,31.12,31.12,0,0,1-1.64-13.12l1.73-25a10.65,10.65,0,0,0-3.11-8.81,12.55,12.55,0,0,0-9-3.28H352.14V158.81Z" transform="translate(-352.14 -89.58)"/><path class="cls-1" d="M586.4,252V227.86h11.34q6,0,9.38-2.42c2.27-1.61,3.26-4.25,3-7.94l-2.06-26.07a14.62,14.62,0,0,1,1.64-8.54,16.89,16.89,0,0,1,5.88-6.13,32,32,0,0,1,9.07-3.8,49.41,49.41,0,0,1,11.23-1.55v-.87a46.23,46.23,0,0,1-11.23-1.64,30.59,30.59,0,0,1-9.07-4.05,18.44,18.44,0,0,1-5.88-6.3,14.67,14.67,0,0,1-1.64-8.55l2.06-25.89a8.13,8.13,0,0,0-3.2-7.51,14.33,14.33,0,0,0-9.17-2.85H586.4V89.58h17.52a51.64,51.64,0,0,1,15.56,2.24,34.09,34.09,0,0,1,12.06,6.48,27.85,27.85,0,0,1,7.53,10.1A26.53,26.53,0,0,1,641,121.52l-2,25a9.63,9.63,0,0,0,3.7,8.8q4.13,3.28,10.72,3.28h25.77V182.8H653.39q-6.6,0-10.72,3.28a9.65,9.65,0,0,0-3.7,8.81L641,221a25.67,25.67,0,0,1-1.95,12.87,26.64,26.64,0,0,1-7.53,9.84,34.66,34.66,0,0,1-12.06,6.21A53.3,53.3,0,0,1,603.92,252Z" transform="translate(-352.14 -89.58)"/></svg>