<?xml version="1.0" encoding="utf-8"?>
<!-- Generator: Adobe Illustrator 24.1.2, SVG Export Plug-In . SVG Version: 6.00 Build 0)  -->
<svg version="1.1" id="work" xmlns="http://www.w3.org/2000/svg" xmlns:xlink="http://www.w3.org/1999/xlink" x="0px" y="0px"
	 viewBox="0 0 2500 2500" style="enable-background:new 0 0 2500 2500;" xml:space="preserve">
<style type="text/css">
	.st0{fill-rule:evenodd;clip-rule:evenodd;fill:#FEA7A8;}
	.st1{fill:none;stroke:#09072B;stroke-width:2;}
	.st2{fill-rule:evenodd;clip-rule:evenodd;fill:#261A5E;}
	.st3{fill:none;stroke:#FFFFFF;stroke-width:2;}
	.st4{fill-rule:evenodd;clip-rule:evenodd;fill:#0F0B47;}
	.st5{opacity:0.3;fill:none;stroke:#FFFFFF;stroke-width:2;enable-background:new    ;}
	.st6{fill-rule:evenodd;clip-rule:evenodd;fill:#3D9BEF;}
	.st7{opacity:0.1;fill-rule:evenodd;clip-rule:evenodd;fill:#0F0B47;enable-background:new    ;}
	.st8{fill-rule:evenodd;clip-rule:evenodd;fill:#E19394;}
	.st9{fill-rule:evenodd;clip-rule:evenodd;fill:#372A7F;}
	.st10{fill-rule:evenodd;clip-rule:evenodd;fill:#54479C;}
	.st11{fill:none;stroke:#0F0B47;stroke-width:2;}
	.st12{fill:none;stroke:#372A7F;stroke-width:2;}
	.st13{fill-rule:evenodd;clip-rule:evenodd;fill:#FFFFFF;}
	.st14{fill:#FFD884;}
	.st15{fill:#FFBF41;}
	.st16{fill:#58B8C0;}
	.st17{fill:#EBD9EC;}
	.st18{fill-rule:evenodd;clip-rule:evenodd;fill:#B3DBC9;}
	.st19{fill-rule:evenodd;clip-rule:evenodd;fill:#BCE6D3;}
	.st20{fill-rule:evenodd;clip-rule:evenodd;fill:#F69800;}
	.st21{opacity:0.5;fill:none;stroke:#FFFFFF;stroke-width:2;enable-background:new    ;}
	.st22{opacity:0.2;fill-rule:evenodd;clip-rule:evenodd;fill:#261A5E;enable-background:new    ;}
	.st23{fill-rule:evenodd;clip-rule:evenodd;fill:#003E8C;}
	.st24{fill-rule:evenodd;clip-rule:evenodd;fill:#08234A;}
	.st25{fill-rule:evenodd;clip-rule:evenodd;fill:#FFFCF8;}
	.st26{fill-rule:evenodd;clip-rule:evenodd;fill:#DBD8FF;}
	.st27{fill-rule:evenodd;clip-rule:evenodd;fill:#C2C0E7;}
	.st28{fill-rule:evenodd;clip-rule:evenodd;fill:#3F38A2;}
	.st29{fill-rule:evenodd;clip-rule:evenodd;fill:#363082;}
	.st30{fill:none;stroke:#FFFFFF;stroke-width:2;stroke-linecap:round;}
	.st31{fill:none;stroke:#DBD8FF;stroke-width:2;stroke-linecap:round;}
	.st32{fill-rule:evenodd;clip-rule:evenodd;fill:#003E8C;stroke:#0F0B47;stroke-width:2;}
	.st33{fill-rule:evenodd;clip-rule:evenodd;fill:#4B55F3;}
	.st34{fill-rule:evenodd;clip-rule:evenodd;fill:#181364;}
	.st35{fill-rule:evenodd;clip-rule:evenodd;fill:#06041A;}
	.st36{opacity:0.6;fill:none;stroke:#FFFFFF;stroke-width:2;enable-background:new    ;}
	.st37{fill-rule:evenodd;clip-rule:evenodd;fill:#FFD422;}
	.st38{fill-rule:evenodd;clip-rule:evenodd;fill:#FFFFFF;stroke:#0F0B47;stroke-width:2;}
	.st39{fill-rule:evenodd;clip-rule:evenodd;fill:#FF0021;}
	.st40{fill:none;stroke:#0F0B47;stroke-width:2;stroke-linecap:round;}
	.st41{fill-rule:evenodd;clip-rule:evenodd;fill:#FEA7A8;stroke:#0F0B47;stroke-width:2;}
	.st42{fill-rule:evenodd;clip-rule:evenodd;fill:#EA0422;}
	.st43{fill-rule:evenodd;clip-rule:evenodd;fill:#0C0936;}
	.st44{fill-rule:evenodd;clip-rule:evenodd;fill:#F3A3A4;}
	.st45{fill-rule:evenodd;clip-rule:evenodd;fill:#0F0B47;stroke:#FFFFFF;stroke-width:2;}
	.st46{fill-rule:evenodd;clip-rule:evenodd;fill:#F7A4A5;}
	.st47{opacity:0.4;fill:none;stroke:#FFFFFF;stroke-width:2;enable-background:new    ;}
	.st48{fill-rule:evenodd;clip-rule:evenodd;fill:#0E8B80;}
	.st49{fill-rule:evenodd;clip-rule:evenodd;fill:#BF4A24;}
	.st50{fill:none;stroke:#FFFCF8;stroke-width:2;}
	.st51{fill:none;stroke:#BF4A24;stroke-width:2;}
	.st52{fill-rule:evenodd;clip-rule:evenodd;fill:#FF77A5;}
	.st53{fill-rule:evenodd;clip-rule:evenodd;fill:#FFC84B;}
	.st54{fill-rule:evenodd;clip-rule:evenodd;fill:#ECB947;}
	.st55{fill-rule:evenodd;clip-rule:evenodd;fill:#0C8076;}
	.st56{fill-rule:evenodd;clip-rule:evenodd;fill:#F9F9F9;}
	.st57{fill:none;stroke:#F9F9F9;stroke-width:2;}
	.st58{fill-rule:evenodd;clip-rule:evenodd;fill:#FF622D;}
	.st59{fill-rule:evenodd;clip-rule:evenodd;fill:#DB4F20;}
	.st60{fill-rule:evenodd;clip-rule:evenodd;fill:#006D85;}
	.st61{fill-rule:evenodd;clip-rule:evenodd;fill:#0094B4;}
	.st62{fill-rule:evenodd;clip-rule:evenodd;fill:#733014;}
	.st63{fill:none;stroke:#733014;stroke-width:2;}
	.st64{opacity:0.1;fill-rule:evenodd;clip-rule:evenodd;enable-background:new    ;}
	.st65{fill-rule:evenodd;clip-rule:evenodd;}
	.st66{fill:none;stroke:#000000;stroke-width:2;}
	.st67{fill-rule:evenodd;clip-rule:evenodd;fill:#4267FF;}
	.st68{fill-rule:evenodd;clip-rule:evenodd;fill:#E19495;}
	.st69{fill-rule:evenodd;clip-rule:evenodd;fill:#202746;}
	.st70{fill-rule:evenodd;clip-rule:evenodd;fill:#2945BB;}
	.st71{fill-rule:evenodd;clip-rule:evenodd;fill:#774033;}
	.st72{fill:none;stroke:#774033;stroke-width:2;}
	.st73{fill-rule:evenodd;clip-rule:evenodd;fill:#EEA013;}
	.st74{fill-rule:evenodd;clip-rule:evenodd;fill:#DB9311;}
	.st75{fill-rule:evenodd;clip-rule:evenodd;fill:#3E60EB;}
	.st76{opacity:0.1;fill-rule:evenodd;clip-rule:evenodd;fill:#FFFFFF;enable-background:new    ;}
	.st77{fill:none;stroke:#261A5E;stroke-width:2;}
	.st78{fill-rule:evenodd;clip-rule:evenodd;fill:#FF5D5C;}
	.st79{fill-rule:evenodd;clip-rule:evenodd;fill:#D95150;}
	.st80{fill-rule:evenodd;clip-rule:evenodd;fill:#03CEFA;}
	.st81{fill-rule:evenodd;clip-rule:evenodd;fill:#03BCE4;}
	.st82{fill-rule:evenodd;clip-rule:evenodd;fill:#402E92;}
	.st83{fill-rule:evenodd;clip-rule:evenodd;fill:#DC678F;}
	.st84{fill-rule:evenodd;clip-rule:evenodd;fill:#98C3AF;}
	.st85{fill-rule:evenodd;clip-rule:evenodd;fill:#19D9EB;}
	.st86{fill-rule:evenodd;clip-rule:evenodd;fill:#13C3D3;}
	.st87{fill-rule:evenodd;clip-rule:evenodd;fill:#10A6B4;}
	.st88{fill-rule:evenodd;clip-rule:evenodd;fill:#FEDD00;}
	.st89{fill-rule:evenodd;clip-rule:evenodd;fill:#358BD7;}
	.st90{fill-rule:evenodd;clip-rule:evenodd;fill:#017F5D;}
	.st91{opacity:0.2;fill:none;stroke:#FFFFFF;stroke-width:2;enable-background:new    ;}
	.st92{fill-rule:evenodd;clip-rule:evenodd;fill:#00976F;}
	.st93{fill-rule:evenodd;clip-rule:evenodd;fill:#FF2200;}
	.st94{fill-rule:evenodd;clip-rule:evenodd;fill:#EE2304;}
	.st95{opacity:0.1;fill-rule:evenodd;clip-rule:evenodd;fill:#002C46;enable-background:new    ;}
	.st96{fill-rule:evenodd;clip-rule:evenodd;fill:#FF81C3;}
	.st97{opacity:0.3;fill-rule:evenodd;clip-rule:evenodd;fill:#BD461E;enable-background:new    ;}
	.st98{fill-rule:evenodd;clip-rule:evenodd;fill:#2F170B;}
	.st99{fill-rule:evenodd;clip-rule:evenodd;fill:#FFC09F;}
	.st100{opacity:0.2;fill-rule:evenodd;clip-rule:evenodd;fill:#6A3D25;enable-background:new    ;}
	.st101{fill-rule:evenodd;clip-rule:evenodd;fill:#6A3D25;}
	.st102{fill-rule:evenodd;clip-rule:evenodd;fill:#284BF2;}
	.st103{fill-rule:evenodd;clip-rule:evenodd;fill:#EB5D2D;}
	.st104{fill-rule:evenodd;clip-rule:evenodd;fill:#FFB34D;}
	.st105{opacity:0.2;fill-rule:evenodd;clip-rule:evenodd;fill:#2F170B;enable-background:new    ;}
	.st106{opacity:0.3;fill-rule:evenodd;clip-rule:evenodd;fill:#2F170B;enable-background:new    ;}
	.st107{fill:none;stroke:#2F170B;stroke-width:2;}
	.st108{fill-rule:evenodd;clip-rule:evenodd;fill:#FF5A59;}
	.st109{fill-rule:evenodd;clip-rule:evenodd;fill:#E94E4D;}
</style>
<g id="_x34_---guy-eat-ice-cream-while-standing-or-sitting">
	<g transform="translate(293.000000, 96.000000)">
		<g id="Group-5_1_" transform="translate(4.623467, 176.434878)">
			
				<g id="Group-5-Copy" transform="translate(150.030180, 391.379610) rotate(5.000000) translate(-150.030180, -391.379610) translate(93.530180, 355.879610)">
				<g id="Group-4_2_" transform="translate(0.578398, 0.082652)">
					<polygon id="Rectangle" class="st0" points="978.4,1454 1145.5,1430.5 1165.1,1570 998,1593.5 					"/>
					<path id="Path-17" class="st1" d="M1228.1,1537.9c9.8-65.2,25.9-96.3,48.2-93.3s4.6,42-53.1,117
						c44.5-92.6,76.2-123.7,95.1-93.5c9.1,14.5-14.1,53.7-85.4,93.8"/>
					<path id="Path-16" class="st2" d="M987,1560.5l195.9-73c17.7,26.1,41.4,44.8,71,56c44.5,16.9,113.2,28.8,152.1,113.9
						l-268.2,27.3l-40.4-27.3v27.3L987,1697.3L987,1560.5z"/>
					<g id="Group-9" transform="translate(50.652456, 24.027587)">
						<line id="Path-25" class="st3" x1="1120.1" y1="1533.9" x2="1182.2" y2="1497.1"/>
						<line id="Path-25-Copy" class="st3" x1="1147.2" y1="1544.3" x2="1209.4" y2="1507.5"/>
						<line id="Path-25-Copy-2" class="st3" x1="1174.4" y1="1554.6" x2="1236.5" y2="1517.8"/>
					</g>
				</g>
			</g>
			<g id="Group-6" transform="translate(3.500672, 351.556459)">
				<rect id="Rectangle_1_" x="603.6" y="1508.8" class="st0" width="144.7" height="140.9"/>
				<path id="Path-109" class="st2" d="M605.1,1594.2l-5.1,14.5c-14.6,41.4-22.1,85-22.1,128.9v45.8l0,0h200.9l-5.2-74.4
					c-1.8-25.1-6-50-12.6-74.2l-11-40.6l0,0H605.1z"/>
				<line id="Path-5_1_" class="st3" x1="616" y1="1687.9" x2="730.2" y2="1687.9"/>
				<line id="Path-5-Copy" class="st3" x1="616" y1="1659.7" x2="730.2" y2="1659.7"/>
				<line id="Path-5-Copy-2" class="st3" x1="616" y1="1627.5" x2="730.2" y2="1627.5"/>
			</g>
			<path id="Path-130" class="st4" d="M981.1,501.9l41.6,53.8c49.3,103.8,77.2,186.7,83.7,248.7c15.5,148.2,27.5,519.8,36,1114.6
				H893l-2.1-605.5l-18.8-449.7l-31.8,452.1l-31.3,603H567.8c19.8-640.3,43.4-1016.9,71-1129.8c13.2-53.9,39.5-131.7,79-233.4
				l5.4-53.9H981.1z"/>
			<path id="Path-2_1_" class="st5" d="M587,1919l55.8-980.7c2.3-40.4,10.9-80.2,25.6-118l13.5-34.6l0,0l62.7-42.3"/>
			<line id="Path-3_1_" class="st3" x1="872.2" y1="863.8" x2="896.9" y2="778.8"/>
			<line id="Path-4_1_" class="st5" x1="932.8" y1="1919" x2="872.2" y2="863.8"/>
		</g>
		<path id="Path-127" class="st6" d="M1034.2,551.3h142.3l-81.4-181.2c-11.9-26.5-31.2-48.9-55.5-64.6
			c-24.4-15.7-52.8-24.1-81.8-24.1H811.4h-99.6c-27.6,0-54.6,8.4-77.3,24.1c-22.4,15.5-37.9,39-43.1,65.7l-35.6,180.1l0,0H708
			l4.2,205.2c57.1,11.9,109.9,17.9,158.2,17.9c48.3,0,105.8-6,172.5-17.9L1034.2,551.3z"/>
		<path id="Path_29_" class="st7" d="M726.5,457.4L755,580.9c3.6,15.8,10.3,30.7,19.5,44c8.8,12.6,23.1,20.1,38.5,20.1h115.1
			c37.3,0,71.8-19.9,90.5-52.2l0,0l0,0l-6.4-123.1l32.3,81.5l-10.3,0l8.6,205.2c-58.9,11.9-124.2,17.9-172.5,17.9
			c-46.7,0-100.3-5.6-152.9-16.8l-5.3-1.1L708,552.3l0.5-2.6L726.5,457.4z"/>
		<path id="Path-129" class="st0" d="M565,549.7l-4.8,84.5c-1.1,19.8,0.3,39.7,4.4,59.1c4.1,19.4,10.5,38.3,19.3,56.1l104.2,212.6
			l0,0l61-42.3l22.2,12.1c8.1,4.4,17.8,4.6,26,0.4c4.7-2.4,6.6-8.2,4.2-12.9c-0.6-1.2-1.5-2.2-2.5-3.1l-37.9-30.6l0,0l-76.1-201.4
			l23.6-134.7H565z"/>
		<g id="Group-2_1_" transform="translate(53.302712, 0.000000)">
			<g id="Group_4_">
				<path id="Path-122" class="st8" d="M739,141.3c-7.3-11.6-14.9-13.7-22.9-6.2c-12,11.2,3.3,46.6,32.8,39.3
					C768.6,169.5,765.3,158.4,739,141.3z"/>
				<path id="Path-122-Copy" class="st8" d="M884.2,141.3c7.3-11.6,14.9-13.7,22.9-6.2c12,11.2-3.3,46.6-32.8,39.3
					C854.6,169.5,857.9,158.4,884.2,141.3z"/>
				<path id="Path-121" class="st9" d="M739,141.3c-9.5-14.1-14.3-30.7-14.3-49.7c-24-30.1-23.3-56.3,2.1-78.6
					c38.1-33.5,122-11.6,146.3,29.5c19.5-4.6,31.4-1.9,35.6,8.3s0.5,20.6-11.1,31.3c10.1,12.7,6.2,32.4-11.7,59.2H739z"/>
				<path id="Path_28_" class="st10" d="M897.6,82.1c10.1,12.7,6.2,32.4-11.7,59.2l-18.9,0l10-45.1C888.1,97.5,895,92.8,897.6,82.1z
					"/>
				<path id="Path_27_" class="st10" d="M754.4,86.3l14.9,15l-13.6,40H739c-9.5-14.1-14.3-30.7-14.3-49.7l-0.7-0.9
					C731.6,93.2,741.7,91.7,754.4,86.3z"/>
				<path id="Path-126" class="st11" d="M719.7,153c0.3-9,4.1-12.7,11.4-10.9c7.3,1.8,13.8,10.4,19.5,25.8"/>
				<path id="Path-126-Copy" class="st11" d="M904.7,153c-0.3-9-4.1-12.7-11.4-10.9c-7.3,1.8-13.8,10.4-19.5,25.8"/>
				<path id="Rectangle_2_" class="st8" d="M762.5,194.8h96.9v84.1c0,26.7-21.7,48.4-48.4,48.4c-26.7,0-48.4-21.7-48.4-48.4V194.8
					L762.5,194.8z"/>
				<path id="Path-120" class="st0" d="M758.6,210.3c25.8,35.6,74,49,105.2,4.3c20.8-29.8,26.9-67.8,18.4-113.9
					c-6.3-7.4-9.5-16.4-9.5-26.9C836.2,84.1,818,82,818,67.6c-23.2,14.3-44.4,20.5-63.6,18.7c-0.2,11.4-4.7,19.6-13.4,24.4
					C735.5,153.4,741.4,186.6,758.6,210.3z"/>
				<path id="Path-123" class="st12" d="M846.4,9.8c17.8,8.3,26.7,19.1,26.7,32.6c4.7-3.7,11.9-5.5,21.5-5.5"/>
				<path id="Path-124" class="st11" d="M822.4,153c8.4,21.2,3.9,30.9-13.6,28.9"/>
				<path id="Path-125" class="st13" d="M795.2,195.9h34.7c-2.2,9.6-8,14.4-17.3,14.4S797.5,205.5,795.2,195.9z"/>
				<ellipse id="Oval_6_" class="st4" cx="791.1" cy="140" rx="6.6" ry="6.6"/>
				<path id="Rectangle-Copy-3_1_" class="st4" d="M795.7,112.7l-25,4c-2.1,0.3-3.5,2.3-3.1,4.3c0,0,0,0,0,0.1
					c0.4,2.1,2.4,3.5,4.5,3.2l25-4c2.1-0.3,3.5-2.3,3.1-4.3c0,0,0,0,0-0.1C799.8,113.8,797.8,112.3,795.7,112.7z"/>
				<path id="Rectangle-Copy-4" class="st4" d="M833.7,112.7l25,4c2.1,0.3,3.5,2.3,3.1,4.3c0,0,0,0,0,0.1c-0.4,2.1-2.4,3.5-4.5,3.2
					l-25-4c-2.1-0.3-3.5-2.3-3.1-4.3c0,0,0,0,0-0.1C829.5,113.8,831.5,112.3,833.7,112.7z"/>
				<ellipse id="Oval-Copy_1_" class="st4" cx="839.5" cy="140" rx="6.6" ry="6.6"/>
			</g>
		</g>
		<g id="icecream" transform="translate(69.513083, 66.990000)">
			<g id="Group_3_" transform="translate(2.497245, 28.413503)">
				<path id="Path_26_" class="st14" d="M799.9,390.3l-38.9-120.1h94.3l-39.2,120.1c-1.7,4.5-6.7,6.7-11.1,5.1
					C802.7,394.5,800.8,392.6,799.9,390.3z"/>
				<polygon id="Path_25_" class="st14" points="855.4,270.2 839.7,270.2 844.8,275.4 782.8,337.4 788,353.3 847.8,293.4 				"/>
				<polygon id="Path_24_" class="st14" points="761.1,270.2 772.1,304.2 806,270.2 				"/>
				<polygon id="Path_23_" class="st14" points="807.2,270.2 812.3,275.4 774.9,312.9 780,328.7 838.5,270.2 				"/>
				<path id="Path_22_" class="st14" d="M799.9,390.3c1.7,4.5,6.7,6.8,11.1,5.1c2.3-0.9,4.2-2.7,5.1-5.1l10.3-31.4l-27.7,27.7
					L799.9,390.3z"/>
				<polygon id="Path_21_" class="st14" points="790.8,362 795.9,377.9 832,341.8 842.2,310.5 				"/>
			</g>
			<polygon id="Path_20_" points="841.6,298 841,298.6 842.2,298.6 			"/>
			<g id="Group_2_" transform="translate(7.360302, 28.413503)">
				<polygon id="Path_19_" class="st15" points="834.8,270.2 833.6,270.2 775.1,328.7 778,337.4 840,275.4 				"/>
				<polygon id="Path_18_" class="st15" points="842.9,293.4 783.1,353.3 785.9,362 837.3,310.5 				"/>
				<polygon id="Path_17_" class="st15" points="793.9,386.6 821.6,358.9 827.1,341.8 791.1,377.9 				"/>
			</g>
			<polygon id="Path_13_" points="809.1,298 808.5,298.6 809.7,298.6 			"/>
			<polygon id="Path_14_" class="st15" points="809.7,298.6 808.5,298.6 774.6,332.6 777.4,341.3 814.8,303.8 			"/>
			<path id="Path_15_" class="st16" d="M859.3,290.1h-0.2c0.1-1.3,0.2-2.7,0.2-4.1c0-10.2-3.2-20.2-9.2-28.5H771
				c-6,8.3-9.2,18.2-9.2,28.5c0,1.4,0.1,2.7,0.2,4.1h-0.2c-4.5,0-8.1,3.6-8.1,8.1s3.6,8.1,8.1,8.1h81.3v16.3c0,4.5,3.6,8.1,8.1,8.1
				c4.5,0,8.1-3.6,8.1-8.1v-16.3c4.5,0,8.1-3.6,8.1-8.1S863.8,290.1,859.3,290.1z"/>
			<path id="Path_16_" class="st17" d="M859.3,241.3h-0.2c0.1-1.3,0.2-2.7,0.2-4.1c0-26.9-21.8-48.8-48.8-48.8s-48.8,21.8-48.8,48.8
				c0,1.4,0.1,2.7,0.2,4.1h-0.2c-4.5,0-8.1,3.6-8.1,8.1c0,4.5,3.6,8.1,8.1,8.1H778v8.1c0,4.5,3.6,8.1,8.1,8.1s8.1-3.6,8.1-8.1v-8.1
				h65c4.5,0,8.1-3.6,8.1-8.1C867.4,245,863.8,241.3,859.3,241.3z"/>
		</g>
		<path id="Path-128" class="st0" d="M1172.4,551.5l25,111.7c5.5,24.4,2.2,49.8-9.2,72l-1.3,2.6c-9.9,19.2-30.4,30.5-51.9,28.6
			c-22.9-2-44.2-12.5-59.7-29.4L880.6,524.5c0,0-0.1-0.1-0.1-0.1l-46-50.3c-6.6-7.2-11.1-16.1-13-25.6c-1.9-9.6-1.7-19.6,0.7-29.1
			l3.8-15.1c1-4.1,3.9-7.4,7.8-9c3.7-1.5,8-0.6,10.8,2.3l6.4,6.7l0,0l52.1,35.6v-34.9c0-4.3,3.5-7.8,7.8-7.8c1.4,0,2.9,0.4,4.1,1.2
			c7.5,4.7,12.7,12.4,14.2,21.1l1.5,8.5c2.5,14.4,10.1,27.3,21.4,36.5l107.3,87.1l0,0H1172.4z"/>
		<line id="Path-7_1_" class="st11" x1="1018.6" y1="518.6" x2="1165.9" y2="632.9"/>
		<line id="Path-8_1_" class="st11" x1="684.9" y1="684.4" x2="650.8" y2="686.8"/>
		<line id="Path-9_1_" class="st11" x1="828.2" y1="402.3" x2="860" y2="437.2"/>
		<line id="Path-9-Copy" class="st11" x1="820.4" y1="421.9" x2="852.1" y2="456.8"/>
		<line id="Path-9-Copy-2" class="st11" x1="820.4" y1="445.5" x2="852.1" y2="480.5"/>
		<line id="Path-10_1_" class="st11" x1="888.5" y1="430.2" x2="914.2" y2="445.5"/>
		<line id="Path-11" class="st11" x1="708.5" y1="549.7" x2="726.5" y2="456.8"/>
	</g>
</g>
</svg>
